<svg width="13" height="11" viewBox="0 0 13 11" fill="none" xmlns="http://www.w3.org/2000/svg">
<path d="M13 1.24938C12.5215 1.4614 12.0081 1.60518 11.4687 1.66938C12.0195 1.33955 12.4411 0.81641 12.6409 0.194958C12.1243 0.500395 11.554 0.722181 10.9464 0.84241C10.4598 0.323322 9.76765 0 8.99997 0C7.52718 0 6.33303 1.19415 6.33303 2.66613C6.33303 2.87489 6.35659 3.0788 6.40209 3.27377C4.18601 3.16247 2.22094 2.10074 0.905753 0.487395C0.675852 0.880581 0.545066 1.33873 0.545066 1.82778C0.545066 2.75305 1.01623 3.56946 1.73111 4.04711C1.29405 4.03249 0.883003 3.91226 0.523145 3.71242V3.74573C0.523145 5.03736 1.44273 6.11534 2.66205 6.36068C2.43865 6.4208 2.20308 6.45411 1.95937 6.45411C1.78716 6.45411 1.62063 6.43705 1.45734 6.40455C1.79689 7.46467 2.78147 8.23558 3.94801 8.25671C3.03574 8.97159 1.88545 9.39644 0.636066 9.39644C0.420801 9.39644 0.208765 9.38344 0 9.35989C1.18035 10.1178 2.58165 10.5597 4.08774 10.5597C8.99351 10.5597 11.6751 6.49636 11.6751 2.9724L11.6661 2.62715C12.1901 2.25344 12.6434 1.78391 13 1.24938Z" fill="white"/>
</svg>
