<svg width="19" height="18" viewBox="0 0 19 18" fill="none" xmlns="http://www.w3.org/2000/svg">
<path d="M15.0437 12.6509C13.7374 12.6509 12.6747 13.7137 12.6747 15.02C12.6747 16.3263 13.7375 17.3891 15.0437 17.3891C16.35 17.3891 17.4128 16.3263 17.4128 15.02C17.4128 13.7137 16.35 12.6509 15.0437 12.6509ZM15.0437 15.9676C14.5211 15.9676 14.0961 15.5426 14.0961 15.02C14.0961 14.4974 14.5211 14.0724 15.0437 14.0724C15.5664 14.0724 15.9914 14.4974 15.9914 15.02C15.9914 15.5426 15.5664 15.9676 15.0437 15.9676Z" fill="white"/>
<path d="M18.849 3.49461C18.7144 3.32239 18.508 3.22193 18.2894 3.22193H4.3871L3.74744 0.545585C3.67092 0.225775 3.38495 3.24579e-09 3.05612 3.24579e-09H0.710723C0.318178 -3.71064e-05 0 0.318141 0 0.710686C0 1.10323 0.318178 1.42141 0.710723 1.42141H2.49514L4.80499 11.0863C4.88151 11.4064 5.16748 11.6319 5.4963 11.6319H16.56C16.8867 11.6319 17.1714 11.4092 17.2498 11.0922L18.9793 4.10343C19.0316 3.8912 18.9835 3.66684 18.849 3.49461ZM16.0039 10.2105H6.05729L4.7268 4.64338H17.3813L16.0039 10.2105Z" fill="white"/>
<path d="M6.44389 12.6509C5.13757 12.6509 4.07483 13.7137 4.07483 15.02C4.07483 16.3263 5.1376 17.3891 6.44389 17.3891C7.75018 17.3891 8.81296 16.3263 8.81296 15.02C8.81296 13.7137 7.75018 12.6509 6.44389 12.6509ZM6.44389 15.9676C5.92128 15.9676 5.49627 15.5426 5.49627 15.02C5.49627 14.4974 5.92128 14.0724 6.44389 14.0724C6.9665 14.0724 7.39152 14.4974 7.39152 15.02C7.39152 15.5426 6.9665 15.9676 6.44389 15.9676Z" fill="white"/>
</svg>
