<svg width="11" height="11" viewBox="0 0 11 11" fill="none" xmlns="http://www.w3.org/2000/svg">
<path d="M7.5625 0H3.4375C1.53931 0 0 1.53931 0 3.4375V7.5625C0 9.46066 1.53931 11 3.4375 11H7.5625C9.46066 11 11 9.46066 11 7.5625V3.4375C11 1.53931 9.46066 0 7.5625 0ZM9.96879 7.5625C9.96879 8.88939 8.88939 9.96879 7.5625 9.96879H3.4375C2.11062 9.96879 1.03125 8.88939 1.03125 7.5625V3.4375C1.03125 2.11062 2.11062 1.03125 3.4375 1.03125H7.5625C8.88939 1.03125 9.96879 2.11062 9.96879 3.4375V7.5625Z" fill="white"/>
<path d="M5.5 2.75C3.98131 2.75 2.75 3.98131 2.75 5.5C2.75 7.01869 3.98131 8.25 5.5 8.25C7.01869 8.25 8.25 7.01869 8.25 5.5C8.25 3.98131 7.01869 2.75 5.5 2.75ZM5.5 7.21875C4.55262 7.21875 3.78125 6.44737 3.78125 5.5C3.78125 4.55194 4.55262 3.78125 5.5 3.78125C6.44737 3.78125 7.21875 4.55194 7.21875 5.5C7.21875 6.44737 6.44737 7.21875 5.5 7.21875Z" fill="white"/>
<path d="M7.69979 2.93288C7.90219 2.93288 8.06624 2.76882 8.06624 2.56644C8.06624 2.36406 7.90219 2.2 7.69979 2.2C7.49739 2.2 7.33334 2.36406 7.33334 2.56644C7.33334 2.76882 7.49739 2.93288 7.69979 2.93288Z" fill="white"/>
</svg>
