<svg width="15" height="16" viewBox="0 0 15 16" fill="none" xmlns="http://www.w3.org/2000/svg">
<path d="M9.76322 0H6.08369C4.44405 0 3.30906 0.359476 2.28752 1.20335C1.48411 1.89649 1.00465 2.90385 1.00465 3.89815C1.00465 5.43006 2.17263 7.05806 4.33698 7.05806C4.54508 7.05806 4.77549 7.03671 4.97881 7.01775L4.94885 7.09057C4.86185 7.29899 4.77947 7.49562 4.77947 7.80251C4.77947 8.40004 5.06772 8.7686 5.34641 9.12473L5.38146 9.16983L5.31916 9.17413C4.42541 9.23532 2.76188 9.3494 1.54673 10.0962C0.11154 10.9495 0 12.1908 0 12.5507C0 13.9829 1.33465 15.4285 4.31658 15.4285C7.78387 15.4285 9.59814 13.5156 9.59814 11.6261C9.59846 10.2285 8.77896 9.53854 7.90911 8.80605L7.17534 8.23528C6.9486 8.04742 6.66624 7.81366 6.66624 7.38057C6.66624 6.95481 6.9486 6.67373 7.19781 6.42579L7.22378 6.3995C8.01619 5.77536 8.91424 5.06772 8.91424 3.53708C8.91424 1.99815 7.95261 1.20287 7.4902 0.820612H8.71124C8.72622 0.820612 8.7412 0.816469 8.75362 0.808343L9.80544 0.147073C9.8354 0.128111 9.84942 0.0916218 9.83954 0.0575225C9.83014 0.0234233 9.79859 0 9.76322 0ZM5.30116 14.5854C3.18764 14.5854 1.76758 13.5983 1.76758 12.129C1.76758 11.1696 2.34839 10.4724 3.4923 10.058C4.40836 9.74967 5.59084 9.73438 5.60263 9.73438C5.80293 9.73438 5.90363 9.73438 6.06361 9.75445C7.54246 10.8069 8.25345 11.3595 8.25345 12.412C8.25329 13.7527 7.12196 14.5854 5.30116 14.5854ZM5.28124 6.49415C3.50744 6.49415 2.77128 4.1625 2.77128 2.91405C2.77128 2.27923 2.91564 1.79196 3.21266 1.42404C3.53501 1.02075 4.08697 0.760222 4.61885 0.760222C6.24749 0.760222 7.14809 2.94927 7.14809 4.46222C7.14809 4.70091 7.14809 5.42704 6.64648 5.93135C6.30916 6.26804 5.76054 6.49415 5.28124 6.49415Z" fill="white"/>
<path d="M14.9203 7.20593H12.9814V5.27391C12.9814 5.22993 12.9456 5.19424 12.9018 5.19424H12.0678C12.0238 5.19424 11.9881 5.22993 11.9881 5.27391V7.20593H10.0589C10.015 7.20593 9.97928 7.24162 9.97928 7.2856V8.13075C9.97928 8.17457 10.015 8.21043 10.0589 8.21043H11.9881V10.1549C11.9881 10.1987 12.0238 10.2346 12.0678 10.2346H12.9018C12.9456 10.2346 12.9814 10.1987 12.9814 10.1549V8.21011H14.9203C14.9643 8.21011 15 8.17457 15 8.13044V7.2856C15 7.24147 14.9645 7.20593 14.9203 7.20593Z" fill="white"/>
</svg>
