<svg width="8" height="15" viewBox="0 0 8 15" fill="none" xmlns="http://www.w3.org/2000/svg">
<path d="M7.69874 0.00307876L5.77991 0C3.62416 0 2.23102 1.42931 2.23102 3.64155V5.32056H0.301719C0.135004 5.32056 0 5.45571 0 5.62242V8.05511C0 8.22182 0.135157 8.35682 0.301719 8.35682H2.23102V14.4953C2.23102 14.6619 2.36603 14.797 2.53274 14.797H5.04993C5.21664 14.797 5.35165 14.6619 5.35165 14.4953V8.35682H7.60745C7.77417 8.35682 7.90917 8.22182 7.90917 8.05511L7.9101 5.62242C7.9101 5.54238 7.87823 5.46571 7.82173 5.40907C7.76525 5.35242 7.68827 5.32056 7.60822 5.32056H5.35165V3.89724C5.35165 3.21314 5.51467 2.86586 6.40582 2.86586L7.69843 2.8654C7.865 2.8654 8 2.73024 8 2.56368V0.304797C8 0.138391 7.86514 0.00338663 7.69874 0.00307876Z" fill="white"/>
</svg>
