<svg width="8" height="13" viewBox="0 0 8 13" fill="none" xmlns="http://www.w3.org/2000/svg">
<path d="M3.99996 6.93318C5.9145 6.93318 7.46656 5.38113 7.46656 3.46658C7.46656 1.55202 5.91452 0 3.99996 0C2.0854 0 0.533386 1.55204 0.533386 3.4666C0.535736 5.38016 2.0864 6.93083 3.99996 6.93318ZM3.99996 1.59997C5.03087 1.59997 5.8666 2.43567 5.8666 3.4666C5.8666 4.49753 5.03089 5.33324 3.99996 5.33324C2.96903 5.33324 2.13333 4.49753 2.13333 3.4666C2.13333 2.43567 2.96906 1.59997 3.99996 1.59997Z" fill="white"/>
<path d="M7.39564 8.57582C7.77238 8.32767 7.99938 7.90696 7.9999 7.45584C8.00515 7.08145 7.79388 6.73766 7.45752 6.57319C7.11192 6.40056 6.69823 6.43944 6.39086 6.67346C4.96632 7.71201 3.03419 7.71201 1.60964 6.67346C1.3018 6.44066 0.888832 6.40184 0.542989 6.57319C0.206772 6.73763 -0.00459892 7.08105 7.59843e-05 7.45529C0.000875967 7.90633 0.227796 8.32692 0.604338 8.57527C1.08743 8.89653 1.61352 9.1479 2.16698 9.32193C2.26085 9.35108 2.35773 9.3781 2.45765 9.403L0.845958 10.979C0.423167 11.3892 0.412942 12.0644 0.823158 12.4873C1.23337 12.91 1.90863 12.9203 2.33145 12.5101C2.34025 12.5015 2.3489 12.4928 2.3574 12.484L4.00004 10.7837L5.64588 12.4872C6.05575 12.9103 6.73103 12.921 7.15415 12.5112C7.57726 12.1013 7.58801 11.426 7.17815 11.0029C7.16957 10.9941 7.16085 10.9854 7.15197 10.9768L5.54293 9.40245C5.64283 9.37685 5.74008 9.34965 5.83465 9.32085C6.38751 9.1475 6.9131 8.89666 7.39564 8.57582Z" fill="white"/>
</svg>
