<svg width="18" height="22" viewBox="0 0 18 22" fill="none" xmlns="http://www.w3.org/2000/svg">
<path d="M8.9233 11.8542C8.94522 11.8542 8.96713 11.8542 8.99342 11.8542C9.00218 11.8542 9.01095 11.8542 9.01971 11.8542C9.03286 11.8542 9.05039 11.8542 9.06353 11.8542C10.3475 11.8314 11.3861 11.3622 12.153 10.4647C13.8401 8.48747 13.5596 5.09795 13.529 4.77449C13.4194 2.34624 12.3151 1.18451 11.4036 0.642369C10.7244 0.236902 9.9312 0.0182232 9.04601 0H9.01533C9.01095 0 9.00218 0 8.9978 0H8.97151C8.48509 0 7.52977 0.0820046 6.6139 0.624146C5.69364 1.16629 4.57181 2.32802 4.46225 4.77449C4.43158 5.09795 4.15112 8.48747 5.83826 10.4647C6.60075 11.3622 7.63933 11.8314 8.9233 11.8542ZM5.63229 4.88838C5.63229 4.87472 5.63668 4.86105 5.63668 4.85194C5.78129 1.58542 8.01181 1.23462 8.96713 1.23462H8.98466C8.99342 1.23462 9.00657 1.23462 9.01971 1.23462C10.2029 1.26196 12.2143 1.7631 12.3502 4.85194C12.3502 4.8656 12.3502 4.87927 12.3545 4.88838C12.3589 4.92027 12.6657 8.01822 11.2721 9.6492C10.72 10.2961 9.98379 10.615 9.01533 10.6241C9.00657 10.6241 9.00218 10.6241 8.99342 10.6241C8.98466 10.6241 8.98027 10.6241 8.97151 10.6241C8.00743 10.615 7.26684 10.2961 6.71907 9.6492C5.32992 8.02734 5.62791 4.91572 5.63229 4.88838Z" fill="#D2D4D8"/>
<path d="M17.9988 17.4761C17.9988 17.4715 17.9988 17.467 17.9988 17.4624C17.9988 17.426 17.9944 17.3895 17.9944 17.3485C17.9681 16.4465 17.9111 14.3371 16.0093 13.6629C15.9961 13.6583 15.9786 13.6538 15.9654 13.6492C13.9891 13.1253 12.3458 11.9408 12.3282 11.9271C12.0609 11.7312 11.6928 11.7995 11.5044 12.0774C11.316 12.3554 11.3817 12.738 11.649 12.9339C11.7235 12.9886 13.4676 14.2506 15.6499 14.8337C16.671 15.2118 16.7849 16.3462 16.8156 17.385C16.8156 17.426 16.8156 17.4624 16.82 17.4989C16.8244 17.9089 16.7981 18.5421 16.7279 18.9066C16.018 19.3257 13.2354 20.7745 9.00217 20.7745C4.78652 20.7745 1.98632 19.3212 1.27202 18.902C1.20191 18.5376 1.17123 17.9043 1.18 17.4943C1.18 17.4579 1.18438 17.4214 1.18438 17.3804C1.21505 16.3417 1.32899 15.2073 2.35004 14.8292C4.53236 14.246 6.27646 12.9795 6.35096 12.9294C6.61827 12.7335 6.684 12.3508 6.49557 12.0729C6.30714 11.795 5.93904 11.7267 5.67172 11.9226C5.65419 11.9362 4.01964 13.1207 2.03452 13.6446C2.01699 13.6492 2.00385 13.6538 1.9907 13.6583C0.0888362 14.3371 0.031868 16.4465 0.00557494 17.344C0.00557494 17.385 0.00557484 17.4214 0.00119267 17.4579C0.00119267 17.4624 0.00119267 17.467 0.00119267 17.4715C-0.0031895 17.7084 -0.00757158 18.9248 0.224684 19.5353C0.268505 19.6538 0.347384 19.754 0.452557 19.8223C0.584022 19.9134 3.7348 22 9.00656 22C14.2783 22 17.4291 19.9089 17.5606 19.8223C17.6613 19.754 17.7446 19.6538 17.7884 19.5353C18.0075 18.9294 18.0032 17.713 17.9988 17.4761Z" fill="#D2D4D8"/>
</svg>
