<svg width="15" height="9" viewBox="0 0 15 9" fill="none" xmlns="http://www.w3.org/2000/svg">
<path d="M14.9204 7.72895C14.9023 7.68981 14.8853 7.65734 14.8696 7.63132C14.6093 7.16261 14.112 6.5873 13.3779 5.90522L13.3625 5.8896L13.3547 5.88194L13.3468 5.87408H13.3389C13.0057 5.55648 12.7948 5.34291 12.7064 5.23358C12.5448 5.02531 12.5085 4.81449 12.5969 4.60087C12.6593 4.43948 12.8938 4.09866 13.2997 3.57791C13.5133 3.30193 13.6824 3.08075 13.8074 2.91411C14.7082 1.71652 15.0987 0.951262 14.9789 0.618006L14.9324 0.540128C14.9011 0.493243 14.8204 0.450351 14.6904 0.411234C14.5601 0.3722 14.3935 0.365745 14.1904 0.391759L11.9412 0.407296C11.9048 0.394385 11.8528 0.395588 11.785 0.411234C11.7172 0.426881 11.6834 0.434732 11.6834 0.434732L11.6443 0.454291L11.6132 0.477787C11.5871 0.493325 11.5585 0.520652 11.5272 0.559715C11.4962 0.59864 11.4701 0.644321 11.4493 0.696376C11.2044 1.32637 10.9261 1.91212 10.6136 2.45357C10.421 2.77642 10.244 3.05623 10.0824 3.29315C9.92109 3.52999 9.78572 3.70447 9.6764 3.81633C9.567 3.92829 9.46828 4.01798 9.37959 4.08575C9.29104 4.15353 9.22344 4.18217 9.17664 4.17169C9.12973 4.16121 9.08555 4.15082 9.04372 4.14042C8.97088 4.09354 8.91229 4.02978 8.86811 3.94908C8.82374 3.86839 8.79387 3.76682 8.77825 3.64446C8.76272 3.52203 8.75352 3.41671 8.7509 3.32816C8.74846 3.23973 8.74958 3.11464 8.75486 2.95325C8.76028 2.79177 8.76272 2.68252 8.76272 2.62524C8.76272 2.42736 8.76657 2.2126 8.77431 1.98091C8.78219 1.74922 8.78856 1.56564 8.7939 1.4304C8.79921 1.29502 8.80166 1.1518 8.80166 1.0008C8.80166 0.849807 8.79247 0.73139 8.77431 0.645442C8.75637 0.559604 8.72882 0.476284 8.69252 0.395506C8.656 0.314811 8.60255 0.252388 8.53242 0.208074C8.46215 0.163815 8.37477 0.128692 8.2708 0.102596C7.99482 0.0401458 7.6434 0.00636327 7.21638 0.00111124C6.24801 -0.00928341 5.62578 0.0532485 5.34982 0.188625C5.24048 0.245823 5.14155 0.323975 5.05309 0.422833C4.95934 0.53742 4.94627 0.599952 5.01394 0.610237C5.32638 0.657041 5.54757 0.769002 5.67774 0.946012L5.72466 1.03981C5.76115 1.10749 5.79758 1.2273 5.83405 1.39908C5.87046 1.57087 5.89396 1.7609 5.9043 1.96906C5.93028 2.34921 5.93028 2.67461 5.9043 2.94532C5.87823 3.21612 5.85361 3.42694 5.83011 3.57794C5.80661 3.72893 5.77149 3.85129 5.72466 3.94498C5.67774 4.03869 5.64653 4.09597 5.63089 4.11676C5.61527 4.13755 5.60225 4.15065 5.59191 4.1558C5.52424 4.18173 5.45385 4.19494 5.38101 4.19494C5.30805 4.19494 5.21959 4.15845 5.11548 4.08552C5.0114 4.01259 4.90338 3.91242 4.79141 3.78485C4.67945 3.65723 4.55318 3.47891 4.41256 3.24985C4.27204 3.02078 4.12624 2.75006 3.97524 2.43767L3.85031 2.21112C3.77222 2.06538 3.66553 1.85317 3.53016 1.57467C3.3947 1.29607 3.27497 1.02657 3.17089 0.766239C3.12928 0.656903 3.06678 0.573665 2.98348 0.516385L2.9444 0.492888C2.91841 0.472098 2.87669 0.450023 2.81947 0.426499C2.76216 0.403001 2.70236 0.386151 2.63983 0.375784L0.499927 0.391321C0.281257 0.391321 0.132888 0.440859 0.0547634 0.5398L0.0234974 0.586603C0.00787805 0.612672 0 0.654306 0 0.711613C0 0.768892 0.0156193 0.839194 0.0468853 0.922432C0.359272 1.65662 0.698985 2.36469 1.06602 3.04674C1.43306 3.72879 1.75202 4.27821 2.02268 4.69448C2.29342 5.11106 2.56937 5.50423 2.85054 5.87378C3.13172 6.24348 3.31783 6.48039 3.4089 6.58447C3.50007 6.68875 3.57168 6.76671 3.62374 6.81876L3.81902 7.00617C3.94398 7.13116 4.12747 7.28084 4.36958 7.45522C4.61175 7.62971 4.87985 7.8015 5.17401 7.97085C5.46824 8.13993 5.81052 8.2779 6.20106 8.38461C6.59154 8.49143 6.97161 8.5343 7.3413 8.51361H8.23945C8.42161 8.49788 8.55961 8.4406 8.65341 8.34175L8.68448 8.3026C8.70538 8.27153 8.72494 8.22325 8.74299 8.15828C8.76126 8.0932 8.77035 8.02151 8.77035 7.94352C8.76501 7.71968 8.78205 7.51794 8.821 7.33834C8.85993 7.15879 8.9043 7.0234 8.95392 6.93223C9.00351 6.84114 9.05948 6.76428 9.12177 6.70196C9.18419 6.63951 9.22866 6.60169 9.25476 6.58866C9.2807 6.57556 9.30141 6.56667 9.31702 6.56134C9.44194 6.5197 9.58903 6.56002 9.75844 6.68249C9.92766 6.80484 10.0864 6.95592 10.2349 7.13548C10.3833 7.31519 10.5616 7.51683 10.7698 7.74066C10.9781 7.96459 11.1603 8.13104 11.3165 8.24054L11.4726 8.33425C11.5769 8.39678 11.7123 8.45406 11.8789 8.50612C12.0452 8.55815 12.191 8.57117 12.3161 8.54515L14.3153 8.51397C14.5132 8.51397 14.667 8.48122 14.7761 8.41626C14.8855 8.35118 14.9505 8.27949 14.9714 8.2015C14.9923 8.12344 14.9934 8.03486 14.9753 7.93583C14.9569 7.83706 14.9386 7.76799 14.9204 7.72895Z" fill="white"/>
</svg>
